<svg width="21" height="21" viewBox="0 0 21 21" fill="none" xmlns="http://www.w3.org/2000/svg">
<path d="M10.3334 0.458557C4.90205 0.458557 0.5 4.86061 0.5 10.291C0.499866 11.5823 0.754123 12.8611 1.24825 14.0542C1.74238 15.2473 2.4667 16.3314 3.37984 17.2445C4.29299 18.1577 5.37707 18.882 6.57018 19.3761C7.76329 19.8703 9.04205 20.1245 10.3334 20.1244C15.7628 20.1244 20.1658 15.7223 20.1658 10.291C20.1658 4.86061 15.7628 0.458557 10.3334 0.458557ZM11.2511 4.00846C12.2098 4.00846 12.4914 4.56461 12.4914 5.20064C12.4914 5.99441 11.8564 6.72876 10.7718 6.72876C9.86434 6.72876 9.43212 6.27299 9.45875 5.51815C9.45875 4.88211 9.99032 4.00846 11.2511 4.00846ZM8.79507 16.1802C8.13957 16.1802 7.66127 15.7817 8.11909 14.0355L8.86983 10.9372C8.99991 10.4415 9.02142 10.2428 8.86983 10.2428C8.67421 10.2428 7.82309 10.5849 7.32123 10.9229L6.99451 10.3872C8.58715 9.05679 10.4184 8.27634 11.202 8.27634C11.8574 8.27634 11.966 9.05064 11.6393 10.2428L10.779 13.4998C10.6264 14.0754 10.6919 14.2741 10.8445 14.2741C11.0412 14.2741 11.6844 14.0365 12.3173 13.5377L12.6881 14.0355C11.1385 15.5841 9.44954 16.1802 8.79507 16.1802Z" fill="#F27480"/>
</svg>
