<?xml version="1.0" encoding="utf-8"?>
<!-- Svg Vector Icons : http://www.onlinewebfonts.com/icon -->
<!DOCTYPE svg PUBLIC "-//W3C//DTD SVG 1.1//EN" "http://www.w3.org/Graphics/SVG/1.1/DTD/svg11.dtd">
<svg version="1.1" fill="#F27480" xmlns="http://www.w3.org/2000/svg" xmlns:xlink="http://www.w3.org/1999/xlink" x="0px" y="0px" viewBox="0 0 1000 1000" enable-background="new 0 0 1000 1000" xml:space="preserve">
<metadata> Svg Vector Icons : http://www.onlinewebfonts.com/icon </metadata>
<g><path d="M346.9,782.7c-50.8,0-91.9,42.2-91.9,94.2s41.1,94.2,91.9,94.2s91.9-42.2,91.9-94.2S397.6,782.7,346.9,782.7z M346.9,908.3c-16.9,0-30.6-14.1-30.6-31.4c0-17.3,13.7-31.4,30.6-31.4c16.9,0,30.6,14.1,30.6,31.4C377.5,894.3,363.8,908.3,346.9,908.3z M959.4,91.7H199.9l-6.1-31.4c0-17.3-13.7-31.4-30.6-31.4H40.6C23.7,28.8,10,42.9,10,60.2c0,17.4,13.7,31.4,30.6,31.4h98L255,688.5c0,17.3,13.7,31.4,30.6,31.4h551.3c16.9,0,30.6-14.1,30.6-31.4s-13.7-31.4-30.6-31.4H310.1l-24.5-125.7h581.9c4.2,0,8.3-0.9,11.9-2.5c7.3-3.2,13.2-9.2,16.3-16.7c1.5-3.8,2.4-7.9,2.4-12.2l89.3-364.4c1.7-3.9,2.6-8.1,2.6-12.6C990,105.7,976.3,91.7,959.4,91.7z M377.5,468.6H273.4l-61.3-314.1h165.4V468.6z M561.2,468.6H408.1V154.5h153.1V468.6z M745,468.6H591.9V154.5H745V468.6z M844.7,468.6h-69V154.5h146.6L844.7,468.6z M775.6,782.7c-50.7,0-91.9,42.2-91.9,94.2s41.2,94.2,91.9,94.2c50.8,0,91.9-42.2,91.9-94.2S826.4,782.7,775.6,782.7z M775.6,908.3c-16.9,0-30.6-14.1-30.6-31.4c0-17.3,13.7-31.4,30.6-31.4c16.9,0,30.6,14.1,30.6,31.4C806.2,894.3,792.6,908.3,775.6,908.3z"/></g>
</svg>