<svg width="18" height="21" viewBox="0 0 18 21" fill="none" xmlns="http://www.w3.org/2000/svg">
<path d="M16.7318 2.69475H14.784V0.746929C14.784 0.388531 14.4931 0.0976562 14.1347 0.0976562H2.44782C1.37392 0.0976562 0.5 0.971578 0.5 2.04548V18.2773C0.5 19.7096 1.6648 20.8744 3.09709 20.8744H16.7318C17.0902 20.8744 17.3811 20.5835 17.3811 20.2251V3.34402C17.3811 2.98562 17.0902 2.69475 16.7318 2.69475ZM13.4855 16.3295C13.4855 16.6879 13.1946 16.9788 12.8362 16.9788H5.04491C4.68651 16.9788 4.39564 16.6879 4.39564 16.3295V15.0309C4.39564 13.2402 5.85261 11.7846 7.64201 11.7846H10.2391C12.0298 11.7846 13.4855 13.2402 13.4855 15.0309V16.3295ZM6.34346 7.88894C6.34346 6.45664 7.50826 5.29184 8.94055 5.29184C10.3728 5.29184 11.5376 6.45664 11.5376 7.88894C11.5376 9.32123 10.3728 10.486 8.94055 10.486C7.50826 10.486 6.34346 9.32123 6.34346 7.88894ZM13.4855 2.69475H2.44782C2.08942 2.69475 1.79855 2.40387 1.79855 2.04548C1.79855 1.68708 2.08942 1.3962 2.44782 1.3962H13.4855V2.69475Z" fill="#F27480"/>
</svg>
