<svg width="20" height="17" viewBox="0 0 20 17" fill="none" xmlns="http://www.w3.org/2000/svg">
<path d="M8.34473 8.84375H11.6553V9.94726H8.34473V8.84375Z" fill="#F27480"/>
<path d="M15.8625 9.9471H12.7587V10.4989C12.7587 10.8038 12.5118 11.0506 12.2069 11.0506H7.79287C7.48797 11.0506 7.24112 10.8038 7.24112 10.4989V9.9471H4.13734C3.42394 9.9471 2.79301 9.49233 2.56713 8.81557L0.583252 2.86292V14.9129C0.583252 15.8256 1.32582 16.5682 2.23852 16.5682H17.7613C18.674 16.5682 19.4165 15.8256 19.4165 14.9129V2.86335L17.4325 8.81557C17.2068 9.49233 16.5759 9.9471 15.8625 9.9471Z" fill="#F27480"/>
<path d="M12.2071 0.015625H7.793C6.8803 0.015625 6.13773 0.758198 6.13773 1.6709V2.22265H1.53271L3.61373 8.46655C3.68916 8.69229 3.89981 8.84373 4.13747 8.84373H7.24124V8.29198C7.24124 7.98707 7.4881 7.74022 7.793 7.74022H12.2071C12.512 7.74022 12.7588 7.98707 12.7588 8.29198V8.84373H15.8626C16.1002 8.84373 16.3109 8.69229 16.3863 8.46655L18.4675 2.22265H13.8623V1.6709C13.8623 0.758198 13.1197 0.015625 12.2071 0.015625ZM7.24124 2.22265V1.6709C7.24124 1.36642 7.48853 1.11914 7.793 1.11914H12.2071C12.5115 1.11914 12.7588 1.36642 12.7588 1.6709V2.22265H7.24124Z" fill="#F27480"/>
</svg>
