<svg width="16" height="21" viewBox="0 0 16 21" fill="none" xmlns="http://www.w3.org/2000/svg">
<path d="M2.34307 20.0549H13.7839C14.7302 20.0549 15.5 19.2851 15.5 18.3388V6.2497H11.4957C10.5494 6.2497 9.7796 5.47989 9.7796 4.53358V0.529297H2.34307C1.39677 0.529297 0.626953 1.29911 0.626953 2.24542V18.3388C0.626953 19.2851 1.39677 20.0549 2.34307 20.0549ZM4.63123 8.576H11.4957C11.8119 8.576 12.0678 8.83185 12.0678 9.14804C12.0678 9.46422 11.8119 9.72008 11.4957 9.72008H4.63123C4.31505 9.72008 4.05919 9.46422 4.05919 9.14804C4.05919 8.83185 4.31505 8.576 4.63123 8.576ZM4.63123 10.8642H11.4957C11.8119 10.8642 12.0678 11.12 12.0678 11.4362C12.0678 11.7524 11.8119 12.0082 11.4957 12.0082H4.63123C4.31505 12.0082 4.05919 11.7524 4.05919 11.4362C4.05919 11.12 4.31505 10.8642 4.63123 10.8642ZM4.63123 13.1523H11.4957C11.8119 13.1523 12.0678 13.4082 12.0678 13.7244C12.0678 14.0405 11.8119 14.2964 11.4957 14.2964H4.63123C4.31505 14.2964 4.05919 14.0405 4.05919 13.7244C4.05919 13.4082 4.31505 13.1523 4.63123 13.1523ZM4.63123 15.4405H9.20756C9.52374 15.4405 9.7796 15.6963 9.7796 16.0125C9.7796 16.3287 9.52374 16.5846 9.20756 16.5846H4.63123C4.31505 16.5846 4.05919 16.3287 4.05919 16.0125C4.05919 15.6963 4.31505 15.4405 4.63123 15.4405Z" fill="#F27480"/>
<path d="M11.4956 5.10565H15.1647L10.9236 0.864502V4.53361C10.9236 4.84922 11.18 5.10565 11.4956 5.10565Z" fill="#F27480"/>
</svg>
