<svg width="26" height="16" viewBox="0 0 26 16" fill="none" xmlns="http://www.w3.org/2000/svg">
<path d="M13.0002 10.4979L5.54248 8.20251V10.4608V12.0362C5.54248 13.8085 8.88255 15.2454 13.0025 15.2454C17.1222 15.2454 20.4628 13.8085 20.4628 12.0362C20.4628 12.0222 20.4583 12.0082 20.458 11.9946V8.20251L13.0002 10.4979Z" fill="#F27480"/>
<path d="M0.5 5.56354L3.16427 6.51658L3.39131 6.03032L4.37009 5.94712L4.50965 6.09233L3.66976 6.2915L3.54735 6.6538C3.54713 6.6538 1.65019 10.6196 1.9288 12.5596C1.9288 12.5596 3.11287 13.2659 4.29643 12.5596L4.61097 7.25528V6.81375L6.37277 6.41631L6.24834 6.72273L4.93475 7.14988L5.54229 7.36692L13 9.66231L20.4577 7.36692L25.5 5.56357L13 0.754517L0.5 5.56354Z" fill="#F27480"/>
</svg>
