<svg width="20" height="20" viewBox="0 0 20 20" fill="none" xmlns="http://www.w3.org/2000/svg">
<path d="M13.4642 13.0214L13.957 14.181H12.928L13.4642 13.0214Z" fill="#F27480"/>
<path d="M17.8167 9.8592L17.4935 7.36953C17.4466 7.0111 17.0747 6.79003 16.7372 6.92348L13.4645 8.21414L13.3673 8.25274C12.3876 10.5201 10.1566 12.1247 7.55 12.1915C6.99221 14.0014 7.4019 16.1071 8.89522 17.601C9.91647 18.6218 11.2739 19.184 12.7175 19.184H14.0946C17.0752 19.184 19.5 16.7593 19.5 13.7787C19.5 12.2256 18.8498 10.835 17.8167 9.8592ZM15.514 16.4209C15.2263 16.5423 14.9026 16.4058 14.7841 16.1262L14.4305 15.2942H12.4132L12.0213 16.1422C11.892 16.4211 11.5615 16.543 11.2825 16.4138C11.0034 16.2847 10.8817 15.954 11.0108 15.675L11.5519 14.5046C11.5519 14.5042 11.5522 14.5042 11.5522 14.5042L12.981 11.4152C13.1832 10.9774 13.8101 10.9879 13.9985 11.4312L15.3111 14.5201V14.5205L15.8087 15.6909C15.9289 15.9737 15.7968 16.3006 15.514 16.4209Z" fill="#F27480"/>
<path d="M7.38082 0.184082H5.90424C2.92436 0.184082 0.5 2.60881 0.5 5.58869C0.5 6.88136 0.888053 8.00076 1.58953 8.93039L1.91498 12.0372C1.95443 12.4127 2.34653 12.6396 2.69205 12.4892L5.90721 11.0805H7.38082C10.3607 11.0805 12.7851 8.65578 12.7851 5.6759V5.58869C12.7851 2.60881 10.3607 0.184082 7.38082 0.184082V0.184082ZM8.19871 6.80996C8.67557 7.40148 9.21031 7.79521 9.21588 7.79893C9.46414 7.98039 9.51832 8.32848 9.33723 8.57674C9.15498 8.82652 8.80578 8.8787 8.55941 8.69809C8.18312 8.4263 7.64088 7.91575 7.19936 7.33951V8.24869C7.19936 8.55596 6.94998 8.80533 6.64271 8.80533H6.64234C6.33508 8.80496 6.08607 8.55596 6.08607 8.24869V7.33951C5.61219 7.95794 5.05313 8.46181 4.72602 8.69809C4.47965 8.8787 4.13045 8.82656 3.9482 8.57674C3.76711 8.32848 3.82129 7.98039 4.06955 7.79893C4.07438 7.79559 4.61469 7.39592 5.08709 6.80996C5.5209 6.27113 5.92799 5.5898 6.08607 5.31631V4.70994H4.39797C4.09033 4.70994 3.84133 4.46094 3.84133 4.1533C3.84133 3.84604 4.09033 3.59666 4.39797 3.59666H6.08607V3.0159C6.08607 2.70863 6.33508 2.45963 6.64234 2.45926H6.64271C6.94998 2.45926 7.19936 2.70863 7.19936 3.0159V3.59666H8.88746C9.1951 3.59666 9.4441 3.84604 9.4441 4.1533C9.4441 4.46094 9.1951 4.70994 8.88746 4.70994H7.19936V5.31594C7.35781 5.59018 7.76564 6.27262 8.19871 6.80996Z" fill="#F27480"/>
<path d="M13.4645 13.0213L12.9282 14.181H13.9573L13.4645 13.0213ZM13.4645 13.0213L12.9282 14.181H13.9573L13.4645 13.0213Z" fill="#F27480"/>
</svg>
