<svg width="141" height="41" viewBox="0 0 141 41" fill="none" xmlns="http://www.w3.org/2000/svg">
<rect x="100.62" y="4.63382" width="40.3803" height="32.4366" fill="white"/>
<path fill-rule="evenodd" clip-rule="evenodd" d="M141 3.05176e-05H100.62V40.3803H141V3.05176e-05ZM102.606 7.94372H110.549L117.169 13.2395L123.789 7.94372H131.732L119.817 17.2113V25.155L129.085 20.5212H138.352L127.761 25.817L138.352 33.0986H129.747L123.127 28.1339L119.817 29.7888V33.0986H114.521V17.2113L102.606 7.94372Z" fill="#F27480"/>
<path d="M0 23.169H4.48797V30.4651L12.7325 23.169H17.8854L10.1395 30.1444L18.2843 40.3803H13.4972L7.34698 32.4428L4.48797 34.9283V40.3803H0V23.169Z" fill="white"/>
<path d="M21.3945 23.169H31.667C34.0606 23.169 35.8447 23.6768 37.0193 24.6924C38.2161 25.708 38.8145 27.1244 38.8145 28.9418C38.8145 30.0999 38.4377 31.0976 37.6842 31.935C36.9528 32.7724 35.9111 33.3782 34.5592 33.7524C34.8917 33.984 35.1576 34.2334 35.3571 34.5007C35.5787 34.7501 35.8114 35.1065 36.0552 35.5697L38.6483 40.3803H33.9941L31.4675 35.7568C31.2459 35.347 30.991 35.0708 30.7029 34.9283C30.4369 34.7679 30.0048 34.6878 29.4064 34.6878H25.8825V40.3803H21.3945V23.169ZM30.5034 31.6945C31.7224 31.6945 32.6532 31.4807 33.2959 31.0531C33.9387 30.6077 34.26 29.9039 34.26 28.9418C34.26 27.9796 33.9719 27.2759 33.3957 26.8304C32.8194 26.385 31.944 26.1623 30.7694 26.1623H25.8825V31.6945H30.5034Z" fill="white"/>
<path d="M47.9647 23.169H52.8848L61.0297 40.3803H56.3755L54.3476 36.2378H46.4687L44.474 40.3803H39.7866L47.9647 23.169ZM53.6827 33.4584L50.3915 26.5365L47.1336 33.4584H53.6827Z" fill="white"/>
<path d="M64.151 23.169H79.2107V25.9752H68.639V30.3849H77.9806V33.1644H68.639V40.3803H64.151V23.169Z" fill="white"/>
<path d="M86.9347 25.9485H80.3524V23.169H97.9718V25.9485H91.4227V40.3803H86.9347V25.9485Z" fill="white"/>
<path d="M17.6362 10.783L9.92957 0.259236H14.6336L19.9048 7.80213L25.176 0.259236H29.8466L22.14 10.783V16.9521H17.6362V10.783Z" fill="white"/>
<path d="M42.4207 17.2113C39.4181 17.2113 37.0605 16.6497 35.3479 15.5265C33.6576 14.4032 32.8124 12.7875 32.8124 10.6793V0.259236H37.3163V10.4201C37.3163 11.6816 37.75 12.632 38.6174 13.2714C39.5071 13.9107 40.7748 14.2304 42.4207 14.2304C44.0665 14.2304 45.3232 13.9107 46.1906 13.2714C47.058 12.632 47.4917 11.6816 47.4917 10.4201V0.259236H51.9955V10.6793C51.9955 12.7702 51.1504 14.386 49.46 15.5265C47.7697 16.6497 45.4232 17.2113 42.4207 17.2113Z" fill="white"/>
<path d="M65.9645 17.2113C62.4059 17.2113 59.6814 16.4855 57.7909 15.034C55.9003 13.5651 54.9551 11.5174 54.9551 8.89079C54.9551 6.09137 55.9115 3.91404 57.8242 2.3588C59.7592 0.786288 62.5616 3.05176e-05 66.2314 3.05176e-05C68.6779 3.05176e-05 70.8354 0.233316 72.7036 0.699887V3.70667C70.9688 3.22282 68.9226 2.9809 66.565 2.9809C64.0518 2.9809 62.2502 3.46475 61.1604 4.43245C60.0706 5.38287 59.5257 6.86899 59.5257 8.89079C59.5257 12.4678 61.6942 14.2564 66.0312 14.2564C67.5214 14.2564 68.9004 14.0835 70.1681 13.7379V9.84985H65.1638V7.62068H73.9714V15.7857C73.1262 16.2004 72.0364 16.546 70.7019 16.8225C69.3674 17.0817 67.7883 17.2113 65.9645 17.2113Z" fill="white"/>
<path d="M86.8676 17.2113C79.906 17.2113 76.4253 14.3687 76.4253 8.68343C76.4253 5.67664 77.2816 3.48203 78.9942 2.0996C80.729 0.699887 83.3534 3.05176e-05 86.8676 3.05176e-05C90.3817 3.05176e-05 92.995 0.699887 94.7076 2.0996C96.4424 3.48203 97.3098 5.67664 97.3098 8.68343C97.3098 14.3687 93.8291 17.2113 86.8676 17.2113ZM86.8676 14.2304C88.8693 14.2304 90.3483 13.7811 91.3047 12.8826C92.2611 11.9667 92.7393 10.567 92.7393 8.68343C92.7393 6.62706 92.2722 5.16687 91.3381 4.30285C90.4039 3.42155 88.9138 2.9809 86.8676 2.9809C84.8214 2.9809 83.3312 3.42155 82.3971 4.30285C81.4629 5.16687 80.9959 6.62706 80.9959 8.68343C80.9959 10.567 81.4741 11.9667 82.4304 12.8826C83.3868 13.7811 84.8659 14.2304 86.8676 14.2304Z" fill="white"/>
</svg>
