<svg width="15" height="12" viewBox="0 0 15 12" fill="none" xmlns="http://www.w3.org/2000/svg">
<path opacity="0.3" d="M1.0841 8.6316C0.0307921 7.05873 0.0305555 4.94119 1.08385 3.36832C2.44079 1.34201 4.80765 0 7.5 0C10.1924 0 12.5589 1.34205 13.9159 3.3684C14.9692 4.94127 14.9694 7.05881 13.9161 8.63168C12.5592 10.658 10.1924 12 7.5 12C4.80761 12 2.44109 10.658 1.0841 8.6316ZM7.5 9.33333C8.41927 9.33333 9.3009 8.98214 9.95092 8.35702C10.6009 7.7319 10.9661 6.88406 10.9661 6C10.9661 5.11594 10.6009 4.2681 9.95092 3.64298C9.3009 3.01786 8.41927 2.66667 7.5 2.66667C6.58073 2.66667 5.6991 3.01786 5.04908 3.64298C4.39906 4.2681 4.03388 5.11594 4.03388 6C4.03388 6.88406 4.39906 7.7319 5.04908 8.35702C5.6991 8.98214 6.58073 9.33333 7.5 9.33333ZM7.5 8C6.94844 8 6.41946 7.78929 6.02945 7.41421C5.63943 7.03914 5.42033 6.53043 5.42033 6C5.42033 5.46957 5.63943 4.96086 6.02945 4.58579C6.41946 4.21071 6.94844 4 7.5 4C8.05156 4 8.58054 4.21071 8.97055 4.58579C9.36057 4.96086 9.57967 5.46957 9.57967 6C9.57967 6.53043 9.36057 7.03914 8.97055 7.41421C8.58054 7.78929 8.05156 8 7.5 8Z" fill="#7E93A8"/>
</svg>
