<svg width="15" height="14" viewBox="0 0 15 14" fill="none" xmlns="http://www.w3.org/2000/svg">
<path d="M2.31468 2.99679L0.146964 0.933817L1.12788 0L14.853 13.0668L13.8721 14L11.5775 11.8156C10.3583 12.5518 8.9438 12.9417 7.5 12.9395C4.47208 12.9395 1.8563 11.2592 0.625121 8.8248C0.0483028 7.68426 0.0491113 6.31623 0.625101 5.17527C1.0369 4.35954 1.60814 3.61931 2.31468 2.99679ZM9.41122 9.75328L8.39634 8.78712C8.00817 8.96393 7.57194 9.02176 7.14779 8.95263C6.72365 8.88349 6.33247 8.69081 6.02819 8.40114C5.72391 8.11147 5.52151 7.73908 5.4489 7.3353C5.37628 6.93151 5.43702 6.51623 5.62275 6.1467L4.60787 5.18054C4.16678 5.81507 3.96959 6.57522 4.0497 7.33227C4.12981 8.08933 4.48229 8.79677 5.04745 9.3348C5.61262 9.87282 6.35573 10.2084 7.15097 10.2846C7.94621 10.3609 8.74469 10.1732 9.41122 9.75328ZM4.70908 1.56208C5.57353 1.23871 6.51562 1.06053 7.5 1.06053C10.5292 1.06053 13.1459 2.74222 14.3765 5.17831C14.9517 6.31712 14.9515 7.68262 14.3767 8.82162C14.1624 9.24624 13.9043 9.65126 13.6052 10.0305L10.9294 7.48308C11.0089 6.97335 10.9618 6.45298 10.7921 5.96366C10.6223 5.47435 10.3345 5.02969 9.95175 4.6653C9.56899 4.30092 9.1019 4.02694 8.58791 3.86533C8.07391 3.70371 7.5273 3.65894 6.99187 3.73461L4.70908 1.56208Z" fill="#D8DFE5"/>
</svg>
