<svg width="20" height="21" viewBox="0 0 20 21" fill="none" xmlns="http://www.w3.org/2000/svg">
<path d="M10.3148 2.48791H9.43347C9.16907 1.56653 8.31979 0.885498 7.31027 0.885498C6.30075 0.885498 5.45147 1.56653 5.18707 2.48791H4.30574C3.97724 2.48791 3.70483 2.76033 3.70483 3.08882V4.29063C3.70483 5.05979 4.33779 5.69275 5.10695 5.69275H9.51359C10.2828 5.69275 10.9157 5.05979 10.9157 4.29063V3.08882C10.9157 2.76033 10.6433 2.48791 10.3148 2.48791Z" fill="#F27480"/>
<path d="M11.9172 3.28906H11.7169V4.29057C11.7169 5.50841 10.7314 6.4939 9.51359 6.4939H5.10695C3.88911 6.4939 2.90363 5.50841 2.90363 4.29057V3.28906H2.70332C1.48549 3.28906 0.5 4.27455 0.5 5.49239V15.5075C0.5 16.7253 1.48549 17.7108 2.70332 17.7108H8.61624L8.79251 16.7253C8.87263 16.2766 9.08094 15.876 9.40143 15.5475L10.0424 14.9066H3.50453C3.17604 14.9066 2.90363 14.6342 2.90363 14.3057C2.90363 13.9772 3.17604 13.7048 3.50453 13.7048H11.116C11.1561 13.7048 11.1881 13.7048 11.2282 13.7208H11.2362L14.1205 10.8364V5.49239C14.1205 4.27455 13.1351 3.28906 11.9172 3.28906ZM11.116 12.3027H3.50453C3.17604 12.3027 2.90363 12.0302 2.90363 11.7017C2.90363 11.3733 3.17604 11.1008 3.50453 11.1008H11.116C11.4445 11.1008 11.7169 11.3733 11.7169 11.7017C11.7169 12.0302 11.4445 12.3027 11.116 12.3027ZM11.116 9.69873H3.50453C3.17604 9.69873 2.90363 9.42632 2.90363 9.09782C2.90363 8.76933 3.17604 8.49692 3.50453 8.49692H11.116C11.4445 8.49692 11.7169 8.76933 11.7169 9.09782C11.7169 9.42632 11.4445 9.69873 11.116 9.69873Z" fill="#F27480"/>
<path d="M10.5369 20.1145C10.379 20.1145 10.2252 20.052 10.1122 19.9383C9.97362 19.7997 9.91113 19.6026 9.94558 19.4087L10.3702 17.001C10.3911 16.8801 10.4503 16.7679 10.5369 16.6806L16.4858 10.7324C17.2165 10.0001 17.9344 10.198 18.327 10.5906L19.3181 11.5817C19.8653 12.1281 19.8653 13.0174 19.3181 13.5647L13.3691 19.5136C13.2826 19.601 13.1704 19.6594 13.0487 19.6803L10.641 20.1049C10.6066 20.1113 10.5713 20.1145 10.5369 20.1145ZM12.9445 19.089H12.9525H12.9445Z" fill="#F27480"/>
</svg>
