<svg width="18" height="20" viewBox="0 0 18 20" fill="none" xmlns="http://www.w3.org/2000/svg">
<path d="M6.61881 6.21378H8.66097C9.01999 5.46866 8.47655 4.59009 7.63962 4.59009C6.80429 4.59009 6.25831 5.46726 6.61881 6.21378Z" fill="#F27480"/>
<path d="M7.63988 3.45727C9.08286 3.45727 10.1651 4.79584 9.85196 6.21378H12.7375V4.96768C12.7375 4.75913 12.5685 4.59008 12.3599 4.59008H11.5978C11.511 4.28603 11.3898 3.99649 11.2392 3.7256L11.7785 3.18634C11.9259 3.03889 11.9259 2.79979 11.7785 2.65233L10.7104 1.58432C10.563 1.43687 10.3239 1.43687 10.1764 1.58432L9.63718 2.12357C9.36629 1.97291 9.07674 1.85181 8.77269 1.76493V1.00285C8.77269 0.794297 8.60364 0.625244 8.39509 0.625244H6.88468C6.67613 0.625244 6.50707 0.794297 6.50707 1.00285V1.76496C6.20303 1.85181 5.91348 1.97295 5.64259 2.12361L5.10333 1.58432C4.95588 1.43687 4.71678 1.43687 4.56932 1.58432L3.50131 2.65233C3.35386 2.79979 3.35386 3.03889 3.50131 3.18634L4.0406 3.7256C3.88998 3.99649 3.76884 4.28603 3.68199 4.59008H2.91984C2.71129 4.59008 2.54224 4.75913 2.54224 4.96768V6.21378H5.42909C5.11417 4.79214 6.19997 3.45727 7.63988 3.45727Z" fill="#F27480"/>
<path d="M17.0945 12.6203L14.8715 9.29625C14.8336 8.62373 14.6986 7.97124 14.4686 7.34668H0.947991C-0.327554 10.8096 1.4166 14.8031 5.06511 16.0976V19.3922C5.06511 19.7049 5.31849 19.9586 5.63152 19.9586H12.0885C12.4012 19.9586 12.6549 19.7049 12.6549 19.3922V16.4847H14.3164C14.6291 16.4847 14.8828 16.2309 14.8828 15.9183V13.5016H16.6236C17.0752 13.5016 17.346 12.9964 17.0945 12.6203Z" fill="#F27480"/>
</svg>
