<svg width="24" height="25" viewBox="0 0 24 25" fill="none" xmlns="http://www.w3.org/2000/svg">
<path d="M12 0.5C5.3715 0.5 0 5.873 0 12.5C0 19.127 5.3715 24.5 12 24.5C18.6285 24.5 24 19.127 24 12.5C24 5.873 18.6285 0.5 12 0.5ZM17.5605 15.9395C17.8418 16.2208 17.9998 16.6022 17.9998 17C17.9998 17.3978 17.8418 17.7792 17.5605 18.0605C17.2792 18.3418 16.8978 18.4998 16.5 18.4998C16.1022 18.4998 15.7208 18.3418 15.4395 18.0605L12 14.621L8.5605 18.0605C8.42152 18.2003 8.25628 18.3112 8.07428 18.3869C7.89228 18.4626 7.69711 18.5016 7.5 18.5016C7.30289 18.5016 7.10772 18.4626 6.92572 18.3869C6.74372 18.3112 6.57848 18.2003 6.4395 18.0605C6.30008 17.9213 6.18948 17.756 6.11401 17.574C6.03854 17.3921 5.9997 17.197 5.9997 17C5.9997 16.803 6.03854 16.6079 6.11401 16.426C6.18948 16.244 6.30008 16.0787 6.4395 15.9395L9.879 12.5L6.4395 9.0605C6.15824 8.77924 6.00023 8.39776 6.00023 8C6.00023 7.60224 6.15824 7.22076 6.4395 6.9395C6.72076 6.65824 7.10224 6.50023 7.5 6.50023C7.89776 6.50023 8.27924 6.65824 8.5605 6.9395L12 10.379L15.4395 6.9395C15.7208 6.65824 16.1022 6.50023 16.5 6.50023C16.8978 6.50023 17.2792 6.65824 17.5605 6.9395C17.8418 7.22076 17.9998 7.60224 17.9998 8C17.9998 8.39776 17.8418 8.77924 17.5605 9.0605L14.121 12.5L17.5605 15.9395Z" fill="#EB5757"/>
</svg>
