<svg width="29" height="29" viewBox="0 0 29 29" fill="none" xmlns="http://www.w3.org/2000/svg">
<path d="M14.0837 0.283936C6.30471 0.283936 7.64157e-08 6.58865 7.64157e-08 14.3661C-0.000192595 16.2157 0.36396 18.0471 1.07166 19.7559C1.77936 21.4647 2.81675 23.0174 4.12458 24.3252C5.4324 25.633 6.98505 26.6704 8.69384 27.3781C10.4026 28.0858 12.2341 28.45 14.0837 28.4498C21.8597 28.4498 28.1658 22.1451 28.1658 14.3661C28.1658 6.58865 21.8597 0.283936 14.0837 0.283936ZM15.398 5.36819C16.771 5.36819 17.1744 6.16471 17.1744 7.07566C17.1744 8.2125 16.2649 9.26426 14.7115 9.26426C13.4118 9.26426 12.7928 8.61149 12.8309 7.53039C12.8309 6.61945 13.5922 5.36819 15.398 5.36819ZM11.8804 22.8008C10.9416 22.8008 10.2565 22.2301 10.9122 19.7291L11.9875 15.2917C12.1738 14.5818 12.2046 14.2972 11.9875 14.2972C11.7073 14.2972 10.4883 14.7871 9.76952 15.2712L9.30158 14.504C11.5826 12.5985 14.2054 11.4807 15.3276 11.4807C16.2664 11.4807 16.4219 12.5897 15.9539 14.2972L14.7218 18.9619C14.5032 19.7863 14.5971 20.0709 14.8156 20.0709C15.0973 20.0709 16.0185 19.7306 16.925 19.0162L17.456 19.7291C15.2366 21.947 12.8177 22.8008 11.8804 22.8008Z" fill="#BDCDDA"/>
</svg>
