<svg width="29" height="29" viewBox="0 0 29 29" fill="none" xmlns="http://www.w3.org/2000/svg">
<path d="M14.0841 0.417114C6.3052 0.417114 0.000488358 6.72183 0.000488358 14.4993C0.000295687 16.3488 0.364449 18.1803 1.07215 19.8891C1.77985 21.5979 2.81724 23.1505 4.12506 24.4584C5.43289 25.7662 6.98554 26.8036 8.69433 27.5113C10.4031 28.219 12.2346 28.5831 14.0841 28.583C21.8601 28.583 28.1663 22.2782 28.1663 14.4993C28.1663 6.72183 21.8601 0.417114 14.0841 0.417114ZM15.3985 5.50137C16.7715 5.50137 17.1749 6.29789 17.1749 7.20883C17.1749 8.34568 16.2654 9.39744 14.712 9.39744C13.4123 9.39744 12.7933 8.74467 12.8314 7.66357C12.8314 6.75263 13.5927 5.50137 15.3985 5.50137ZM11.8809 22.9339C10.9421 22.9339 10.257 22.3633 10.9127 19.8623L11.9879 15.4249C12.1742 14.7149 12.205 14.4304 11.9879 14.4304C11.7078 14.4304 10.4888 14.9203 9.77 15.4044L9.30206 14.6372C11.5831 12.7317 14.2059 11.6139 15.3281 11.6139C16.2669 11.6139 16.4224 12.7229 15.9544 14.4304L14.7222 19.0951C14.5037 19.9195 14.5976 20.2041 14.8161 20.2041C15.0978 20.2041 16.019 19.8637 16.9255 19.1494L17.4565 19.8623C15.2371 22.0802 12.8182 22.9339 11.8809 22.9339Z" fill="#F27480"/>
</svg>
